<svg width="32" height="32.000001" xmlns="http://www.w3.org/2000/svg">

 <g>
  <title>background</title>
  <rect fill="none" id="canvas_background" height="402" width="582" y="-1" x="-1"/>
 </g>
 <g>
  <title>Layer 1</title>
  <path fill="#007f3f" stroke-linecap="round" stroke-linejoin="round" stroke-miterlimit="4.1" id="path4988" d="m24.99999,7.999978l0,18.5c0,0.831 -0.669,1.5 -1.50001,1.5l-15.99997,0c-0.83101,0 -1.50001,-0.669 -1.50001,-1.5l0,-22c0,-0.831 0.669,-1.5 1.50001,-1.5l12.49998,0"/>
  <path fill="#b7a2dd" stroke-linecap="round" stroke-linejoin="round" stroke-miterlimit="4.1" id="path5112" d="m20.00002,2.999978l0,3.5c0,0.831 0.66899,1.5 1.5,1.5l3.5,0l-5,-5z"/>
  <path clip-rule="nonzero" fill="#f9f9f9" fill-rule="nonzero" stroke-linecap="round" stroke-linejoin="round" stroke-miterlimit="4.1" stroke-dashoffset="0" id="rect5114" d="m10,11.499178a0.50005,0.50005 0 0 0 -0.5,0.5l0,9a0.50005,0.50005 0 0 0 0.5,0.5l11,0a0.50005,0.50005 0 0 0 0.5,-0.5l0,-9a0.50005,0.50005 0 0 0 -0.5,-0.5l-11,0zm0.5,1l10,0l0,8l-10,0l0,-8z"/>
  <path clip-rule="nonzero" fill="#f9f9f9" fill-rule="nonzero" stroke-width="1" stroke-linecap="round" stroke-linejoin="round" stroke-miterlimit="4.1" stroke-dashoffset="0" id="rect5116" d="m10,11.499178a0.50005,0.50005 0 0 0 -0.5,0.5l0,3a0.50005,0.50005 0 0 0 0.5,0.5l11,0a0.50005,0.50005 0 0 0 0.5,-0.5l0,-3a0.50005,0.50005 0 0 0 -0.5,-0.5l-11,0zm0.5,1l10,0l0,2l-10,0l0,-2z"/>
  <path clip-rule="nonzero" fill="#f9f9f9" fill-rule="nonzero" stroke-width="1" stroke-linecap="round" stroke-linejoin="round" stroke-miterlimit="4.1" stroke-dashoffset="0" id="rect5118" d="m10,14.499178a0.50005,0.50005 0 0 0 -0.5,0.5l0,3a0.50005,0.50005 0 0 0 0.5,0.5l11,0a0.50005,0.50005 0 0 0 0.5,-0.5l0,-3a0.50005,0.50005 0 0 0 -0.5,-0.5l-11,0zm0.5,1l10,0l0,2l-10,0l0,-2z"/>
  <path clip-rule="nonzero" fill="#f9f9f9" fill-rule="evenodd" stroke-width="1px" stroke-linecap="round" stroke-linejoin="round" stroke-miterlimit="4" stroke-dashoffset="0" id="path5120" d="m15.49219,11.499178a0.50005,0.50005 0 0 0 -0.49219,0.5078l0,9a0.50005,0.50005 0 1 0 1,0l0,-9a0.50005,0.50005 0 0 0 -0.50781,-0.5078z"/>
 </g>
</svg>