<?xml version="1.0" ?><!DOCTYPE svg  PUBLIC '-//W3C//DTD SVG 1.1//EN'  'http://www.w3.org/Graphics/SVG/1.1/DTD/svg11.dtd'><svg xmlns="http://www.w3.org/2000/svg" x="0px" y="0px"
     width="48" height="48"
     viewBox="0 0 224 224"
     style=" fill:#000000;"><g fill="none" fill-rule="nonzero" stroke="none" stroke-width="1" stroke-linecap="butt" stroke-linejoin="miter" stroke-miterlimit="10" stroke-dasharray="" stroke-dashoffset="0" font-family="none" font-size="none" style="mix-blend-mode: normal"><path d="M0,224v-224h224v224z" fill="none"></path><g id="Layer_1"><g id="surface1"><path d="M156.33333,74.66667c-11.66667,0 -22.4,4.66667 -30.33333,12.13333c-7.93333,-7.46667 -18.66667,-12.13333 -30.33333,-12.13333c-24.26667,0 -44.33333,20.06667 -44.33333,44.33333v53.66667h28v-58.33333c0,-8.86667 7.46667,-16.33333 16.33333,-16.33333c8.86667,0 16.33333,7.46667 16.33333,16.33333v58.33333h28v-58.33333c0,-8.86667 7.46667,-16.33333 16.33333,-16.33333c8.86667,0 16.33333,7.46667 16.33333,16.33333v58.33333h28v-53.66667c0,-24.26667 -20.06667,-44.33333 -44.33333,-44.33333z" fill="#666666"></path><rect x="5.5" y="16.2" transform="scale(4.66667,4.66667)" width="1" height="15.8" fill="#000000"></rect><path d="M102.66667,60.66667c5.13333,1.86667 12.13333,9.33333 14,14c-8.4,7.93333 -12.13333,13.53333 -14,28c-0.46667,5.13333 -4.2,7.93333 -9.33333,4.66667c-14.46667,-8.86667 -28,-9.33333 -37.33333,-9.33333c-4.66667,-4.66667 -2.33333,-17.26667 0,-23.33333l28,4.66667z" fill="#424242"></path><path d="M84,79.33333h-65.33333l51.33333,-32.66667h65.33333z" fill="#616161"></path><path d="M35,140c0,-10.26667 -3.26667,-18.66667 -7,-18.66667c-3.73333,0 -7,8.4 -7,18.66667c0,10.26667 3.26667,18.66667 7,18.66667c3.73333,0 7,-8.4 7,-18.66667z" fill="#424242"></path></g></g></g></svg>
